<svg width="72" height="72" viewBox="0 0 72 72" fill="none" xmlns="http://www.w3.org/2000/svg">
<g clip-path="url(#clip0_28_15)">
<path d="M14.51 26.02C14.88 24.07 15.23 22.12 16.29 20.38C18.71 16.43 22.5 14.91 26.86 14.81C32.81 14.66 38.77 14.67 44.73 14.81C48.77 14.91 52.37 16.24 54.83 19.74C56.41 22 57 24.58 57.04 27.25C57.13 32.97 57.17 38.7 57.04 44.42C56.93 49.03 55.33 52.96 51.02 55.3C49.03 56.38 46.84 56.85 44.61 56.88C38.73 56.95 32.85 57.01 26.97 56.88C22.56 56.78 18.73 55.29 16.28 51.3C15.22 49.57 14.87 47.61 14.5 45.66V26.03L14.51 26.02ZM35.84 18.84C32.92 18.84 30 18.78 27.08 18.85C22.52 18.96 19.72 21.09 18.89 25.02C18.71 25.85 18.58 26.71 18.58 27.56C18.55 33.09 18.48 38.62 18.59 44.15C18.7 49.65 21.48 52.59 26.79 52.79C32.78 53.01 38.78 52.99 44.77 52.79C49.19 52.64 51.82 50.52 52.66 46.7C52.81 46.02 52.95 45.32 52.96 44.62C52.99 38.32 53.34 32.01 52.77 25.72C52.43 21.99 49.94 19.56 46.22 19.05C42.77 18.58 39.3 18.91 35.84 18.84Z" fill="black"/>
<path d="M46.82 35.91C46.8 41.85 41.87 46.73 35.82 46.8C29.75 46.87 24.71 41.86 24.73 35.77C24.75 29.78 29.86 24.76 35.84 24.88C41.98 25 46.83 29.88 46.81 35.91H46.82ZM42.73 35.86C42.73 32.08 39.62 28.98 35.8 28.96C32 28.94 28.84 32.05 28.83 35.82C28.83 39.6 31.94 42.7 35.76 42.72C39.56 42.74 42.72 39.63 42.73 35.86Z" fill="black"/>
<path d="M47.12 21.99C48.58 21.97 49.82 23.18 49.82 24.63C49.82 26.01 48.62 27.2 47.21 27.24C45.75 27.28 44.48 26.09 44.46 24.65C44.43 23.2 45.63 22.01 47.13 21.99H47.12Z" fill="black"/>
<path d="M57.04 2H14.61C7.64569 2 2 7.64569 2 14.61V57.04C2 64.0043 7.64569 69.65 14.61 69.65H57.04C64.0043 69.65 69.65 64.0043 69.65 57.04V14.61C69.65 7.64569 64.0043 2 57.04 2Z" stroke="black" stroke-width="4" stroke-linecap="round" stroke-linejoin="round"/>
</g>
<defs>
<clipPath id="clip0_28_15">
<rect width="72" height="72" fill="white"/>
</clipPath>
</defs>
</svg>
