<svg width="72" height="72" viewBox="0 0 72 72" fill="none" xmlns="http://www.w3.org/2000/svg">
<g clip-path="url(#clip0_28_9)">
<path d="M26.34 22.5402C26.34 24.6302 25.01 26.3402 22.54 26.3402C20.26 26.3402 18.74 24.6302 18.74 22.7302C18.74 20.6402 20.26 18.7402 22.54 18.7402C24.82 18.7402 26.34 20.4502 26.34 22.5402Z" fill="black"/>
<path d="M26.34 28.2305H18.75V52.9005H26.34V28.2305Z" fill="black"/>
<path d="M44.5499 28.6101C40.5599 28.6101 38.2899 30.8901 37.3399 32.4101H37.1499L36.7699 29.1801H29.9399C29.9399 31.2701 30.1299 33.7301 30.1299 36.5801V52.9001H37.7199V39.4301C37.7199 38.6701 37.7199 38.1001 37.9099 37.5301C38.4799 36.2001 39.4299 34.4901 41.5199 34.4901C44.1799 34.4901 45.3199 36.7701 45.3199 39.8001V52.8901H52.9099V38.8501C52.9099 31.8301 49.2999 28.6001 44.5599 28.6001L44.5499 28.6101Z" fill="black"/>
<path d="M57.04 2H14.61C7.64569 2 2 7.64569 2 14.61V57.04C2 64.0043 7.64569 69.65 14.61 69.65H57.04C64.0043 69.65 69.65 64.0043 69.65 57.04V14.61C69.65 7.64569 64.0043 2 57.04 2Z" stroke="black" stroke-width="4" stroke-linecap="round" stroke-linejoin="round"/>
</g>
<defs>
<clipPath id="clip0_28_9">
<rect width="72" height="72" fill="white"/>
</clipPath>
</defs>
</svg>
