<svg width="72" height="72" viewBox="0 0 72 72" fill="none" xmlns="http://www.w3.org/2000/svg">
<g clip-path="url(#clip0_28_2)">
<path d="M25.7601 52.5702L26.3901 52.9502C29.4701 54.7802 32.9801 55.7502 36.5301 55.7502C47.5101 55.7502 56.4501 46.8102 56.4501 35.8302C56.4501 24.8502 47.5101 15.9102 36.5301 15.9102C25.5501 15.9102 16.6101 24.8502 16.6101 35.8302C16.6101 39.7102 17.7301 43.4702 19.8601 46.7202L20.2601 47.3302L17.7301 55.5202L25.7501 52.5702H25.7601Z" stroke="black" stroke-width="3" stroke-linecap="round" stroke-linejoin="round"/>
<path d="M28.1301 24.2998C27.6901 24.4498 27.3101 24.7198 26.7601 25.2898C25.5401 26.5698 24.9701 27.8998 24.8901 29.6998C24.8001 31.7598 25.6001 34.0298 27.4201 36.8398C30.4601 41.5298 33.5001 44.2698 37.5401 45.9498C39.6101 46.8098 40.9601 47.2598 41.8401 47.3798C42.5101 47.4698 43.8301 47.2698 44.6501 46.9598C45.3901 46.6698 46.4201 45.9998 46.8801 45.4998C47.5801 44.7298 48.1901 42.9998 48.1901 41.7798C48.1901 41.2698 48.1801 41.2098 48.0001 41.0098C47.6301 40.6098 43.0901 38.2298 42.5501 38.1598C42.0601 38.0998 41.8701 38.2298 41.0601 39.1698C39.8101 40.6298 39.4201 41.0098 39.2001 41.0098C38.9401 41.0098 37.2101 40.1398 36.3901 39.5998C34.3701 38.2698 32.7001 36.4398 31.3801 34.1098C31.2701 33.9198 31.1901 33.7398 31.1901 33.6998C31.1901 33.6598 31.4201 33.3698 31.7001 33.0698C32.3701 32.3298 32.6001 31.9898 32.8801 31.2998C33.2101 30.5198 33.2001 30.3098 32.7601 29.1298C32.1301 27.4098 31.9301 26.8698 31.5801 25.9398C31.2201 24.9798 30.9501 24.5598 30.5801 24.3998C30.2401 24.2598 28.4901 24.1998 28.1301 24.3098V24.2998Z" fill="black"/>
<path d="M57.04 2H14.61C7.64569 2 2 7.64569 2 14.61V57.04C2 64.0043 7.64569 69.65 14.61 69.65H57.04C64.0043 69.65 69.65 64.0043 69.65 57.04V14.61C69.65 7.64569 64.0043 2 57.04 2Z" stroke="black" stroke-width="4" stroke-linecap="round" stroke-linejoin="round"/>
</g>
<defs>
<clipPath id="clip0_28_2">
<rect width="72" height="72" fill="white"/>
</clipPath>
</defs>
</svg>
